<?xml version="1.0" encoding="UTF-8"?>
<svg width="1200pt" height="1200pt" version="1.1" viewBox="0 0 1200 1200" xmlns="http://www.w3.org/2000/svg">
 <path d="m460.78 531.56c-7.7344 0-14.062-6.3281-14.062-14.062s6.3281-14.062 14.062-14.062h27.891c7.7344 0 14.062 6.3281 14.062 14.062s-6.3281 14.062-14.062 14.062zm0 89.766c-7.7344 0-14.062-6.3281-14.062-14.062s6.3281-14.062 14.062-14.062h71.016c7.7344 0 14.062 6.3281 14.062 14.062s-6.3281 14.062-14.062 14.062zm0-44.766c-7.7344 0-14.062-6.3281-14.062-14.062s6.3281-14.062 14.062-14.062h38.438c7.7344 0 14.062 6.3281 14.062 14.062s-6.3281 14.062-14.062 14.062zm173.91-125.62c-7.7344 0-14.062-6.3281-14.062-14.062s6.3281-14.062 14.062-14.062h89.531c7.7344 0 14.062 6.3281 14.062 14.062s-6.3281 14.062-14.062 14.062zm0 89.766c-7.7344 0-14.062-6.3281-14.062-14.062s6.3281-14.062 14.062-14.062h89.531c7.7344 0 14.062 6.3281 14.062 14.062s-6.3281 14.062-14.062 14.062zm0-44.766c-7.7344 0-14.062-6.3281-14.062-14.062s6.3281-14.062 14.062-14.062h89.531c7.7344 0 14.062 6.3281 14.062 14.062s-6.3281 14.062-14.062 14.062zm111.33 138.75c-29.297 13.359-60.469 17.109-90 12.656-40.312 66.562-122.81 94.453-195.23 66.094l-42.891 23.906c-10.547 5.8594-22.969-3.2812-20.625-15l8.9062-44.531c-78.516-78.047-56.016-212.34 46.406-259.22 28.594-13.125 59.766-17.344 90-12.891 40.312-66.562 122.81-94.453 195.23-66.094l42.891-23.906c10.547-5.8594 22.969 3.2812 20.625 15l-8.9062 44.531c78.516 78.281 56.016 212.58-46.406 259.45zm-118.83 5.625c-84.609-29.297-129.38-123.52-97.5-207.42-58.828-4.6875-113.67 30.234-134.3 85.547-15.234 41.016-9.6094 87.891 17.344 124.45 5.1562 7.0312 11.016 13.594 17.109 19.219 4.2188 3.0469 6.3281 8.4375 5.3906 14.062l-4.4531 22.266 21.562-11.953c3.75-2.3438 8.6719-3.0469 13.359-1.1719 57.891 25.547 125.39 6.5625 161.48-45zm6.0938-27.422c67.969 25.312 144.14-8.6719 169.92-77.578 15.234-41.016 9.6094-87.656-17.344-124.45-5.1562-7.0312-11.016-13.594-17.109-19.219-4.2188-3.0469-6.3281-8.4375-5.3906-14.062l4.4531-22.266-21.562 11.953c-3.75 2.3438-8.6719 3.0469-13.359 1.1719-34.453-15.234-73.594-15.469-108.28 0.46875-65.859 30-95.625 108.28-65.391 175.08 15.234 33.047 42.422 56.953 74.062 68.906zm-313.36-280.08c-4.6875 6.0938-13.594 7.2656-19.688 2.5781s-7.2656-13.594-2.5781-19.688c110.39-144.14 307.5-190.55 470.62-110.16 52.734 26.016 98.438 63.75 134.06 110.16 4.6875 6.0938 3.5156 15-2.5781 19.688s-15 3.5156-19.688-2.5781c-102.19-133.36-285.23-176.48-435.94-101.95-48.984 24.141-91.406 59.297-124.22 101.95zm633.05 214.69c0-7.7344 6.3281-14.062 14.062-14.062s14.062 6.3281 14.062 14.062c0 149.53-87.422 284.06-220.78 345.7-7.0312 3.2812-15.469 0.23438-18.75-6.7969s-0.23438-15.469 6.7969-18.516c123.75-57.188 204.61-181.64 204.61-320.39zm-501.33 320.39c7.0312 3.2812 10.078 11.484 6.7969 18.516s-11.484 10.078-18.516 6.7969c-133.36-61.641-221.02-196.17-221.02-345.7 0-7.7344 6.3281-14.062 14.062-14.062s14.062 6.3281 14.062 14.062c0 138.75 80.859 262.97 204.61 320.39zm202.5 12.891c46.641 9.6094 81.562 50.859 81.562 99.609v39.141c0 7.7344-6.3281 14.062-14.062 14.062h-243.28c-7.7344 0-14.062-6.3281-14.062-14.062v-38.906c0-48.516 34.688-90 81.562-99.609-27.656-29.297-26.953-75.234 1.6406-103.59 29.062-29.062 76.172-29.062 105.23 0 28.359 28.125 29.062 74.062 1.4062 103.36zm-54.141-97.266c-41.25 0-61.875 49.922-32.812 79.219 29.062 29.062 79.219 8.4375 79.219-32.812 0-25.547-20.859-46.406-46.406-46.406zm460.08-428.91c46.641 9.6094 81.562 50.859 81.562 99.609v38.906c0 7.7344-6.3281 14.062-14.062 14.062h-243.52c-7.7344 0-14.062-6.3281-14.062-14.062v-38.906c0-48.516 34.688-90 81.562-99.609-44.531-47.344-10.781-125.39 54.141-125.39 41.016 0 74.531 33.281 74.531 74.531 0 19.453-7.7344 37.5-20.156 50.859zm-54.375-97.5c-41.016 0-61.875 49.922-32.812 78.984s79.219 8.4375 79.219-32.812c0-25.312-20.859-46.172-46.406-46.172zm-757.03 97.5c46.641 9.6094 81.562 50.859 81.562 99.609v38.906c0 7.7344-6.3281 14.062-14.062 14.062h-243.52c-7.7344 0-14.062-6.3281-14.062-14.062v-38.906c0-48.516 34.688-90 81.562-99.609-44.531-47.344-10.781-125.39 54.375-125.39 41.016 0 74.531 33.281 74.531 74.531-0.23438 19.453-7.9688 37.5-20.391 50.859zm-54.375-97.5c-41.25 0-61.875 49.922-32.812 78.984s78.984 8.4375 78.984-32.812c0.23438-25.312-20.625-46.172-46.172-46.172z" fill="#f282b5"/>
</svg>
