<?xml version="1.0" encoding="UTF-8"?>
<svg width="1200pt" height="1200pt" version="1.1" viewBox="0 0 1200 1200" xmlns="http://www.w3.org/2000/svg">
 <path d="m600 314.87c55.996 0.011718 110.13 20.105 152.57 56.629 42.445 36.527 70.379 87.062 78.734 142.43 47.852-15.395 99.852-11.203 144.62 11.645 44.77 22.852 78.668 62.508 94.277 110.29 15.609 47.781 11.656 99.797-10.988 144.67-22.648 44.875-62.148 78.953-109.86 94.781-47.707 15.824-99.746 12.109-144.72-10.332-44.977-22.445-79.234-61.789-95.277-109.43-33.703 17.793-71.242 27.094-109.36 27.094-38.117 0-75.652-9.3008-109.36-27.094-16.047 47.621-50.297 86.945-95.266 109.38-44.965 22.434-96.988 26.141-144.68 10.32-47.695-15.824-87.184-49.891-109.83-94.75-22.641-44.863-26.598-96.863-10.996-144.63 15.598-47.77 49.48-87.418 94.234-110.27 44.754-22.852 96.734-27.051 144.58-11.676 8.3555-55.371 36.289-105.91 78.734-142.43 42.441-36.523 96.578-56.617 152.57-56.629zm-239.37 669.73-152.73-5.3438h-0.003906c-3.5156-0.11328-6.9375 1.1797-9.5 3.5898-2.5664 2.4062-4.0703 5.7383-4.1797 9.2578v0.83203l5.3555 152.75c0.44141 7.1641 6.4961 12.676 13.668 12.453 7.1719-0.22656 12.867-6.1094 12.859-13.285l-4.2188-120.43c105.6 94.137 242.51 145.52 383.98 144.09 141.46-1.4258 277.31-55.551 380.99-151.8 103.68-96.25 167.75-227.7 179.68-368.67 11.926-140.97-29.141-281.32-115.18-393.62-4.457-5.832-12.801-6.9453-18.633-2.4883s-6.9453 12.797-2.4883 18.633c81.602 106.82 120.59 240.14 109.39 374.1-11.195 133.95-71.777 258.96-169.98 350.75-98.199 91.789-227.01 143.8-361.41 145.94-134.4 2.1406-264.8-45.75-365.87-134.37l117.47 4.1172c7.1758 0.011719 13.059-5.6836 13.285-12.855 0.22266-7.1719-5.2891-13.227-12.453-13.668zm613.26-929.41 4.2188 120.44c-105.61-94.086-242.5-145.43-383.93-143.98-141.43 1.4414-277.25 55.562-380.91 151.79-103.66 96.223-167.73 227.64-179.68 368.57-11.953 140.93 29.066 281.26 115.05 393.57 4.457 5.832 12.801 6.9453 18.633 2.4883s6.9453-12.797 2.4883-18.633c-81.613-106.82-120.61-240.15-109.42-374.11 11.191-133.96 71.773-258.98 169.98-350.77 98.207-91.789 227.03-143.8 361.44-145.94 134.41-2.1328 264.81 45.77 365.88 134.4l-117.47-4.1172h-0.003907c-7.1719-0.003906-13.051 5.6953-13.27 12.863-0.22266 7.168 5.2891 13.219 12.449 13.66l152.71 5.3438h0.83594c7.3281-0.23828 13.078-6.3633 12.859-13.691l-5.3438-152.75c-0.44141-7.1641-6.5-12.68-13.676-12.453-7.1719 0.23047-12.867 6.1211-12.852 13.297zm-663.54 646.84c13.469-0.019532 26.164-6.3047 34.348-17.004 8.1836-10.699 10.926-24.598 7.4141-37.602-3.5078-13.008-12.863-23.641-25.316-28.777-12.457-5.1328-26.59-4.1797-38.242 2.5742-11.656 6.7578-19.504 18.551-21.238 31.906-1.7305 13.359 2.8477 26.766 12.391 36.273 8.125 8.1172 19.156 12.664 30.645 12.629zm49.465 6.1523c-0.90234 0.89453-1.8242 1.7656-2.7656 2.6133v0.003907c39.18 15.316 68.414 48.797 78.312 89.684 14.605-17.289 25.461-37.426 31.871-59.129-11.672-8.0664-22.594-17.176-32.629-27.207-21.75-21.691-39-47.469-50.754-75.852-11.758-28.379-17.789-58.805-17.746-89.523 0-2.5273 0-5.0508 0.125-7.5781-7.4648-2.7188-15.117-4.8828-22.898-6.4805-48.156-9.8828-98.199 2.4102-136.3 33.477-38.098 31.062-60.211 77.609-60.227 126.77-0.050781 38.637 13.633 76.039 38.602 105.52 9.8828-40.867 39.082-74.344 78.227-89.684-0.94141-0.84375-1.8672-1.7148-2.7656-2.6133v-0.003907c-13.125-13.121-20.504-30.922-20.508-49.48 0-18.562 7.3711-36.363 20.496-49.492 13.121-13.125 30.922-20.5 49.484-20.5s36.363 7.375 49.484 20.5c13.125 13.129 20.496 30.93 20.496 49.492-0.003906 18.559-7.3828 36.359-20.508 49.48zm52.195 114.95h-0.003906c-2.4297-34.629-22.312-65.641-52.77-82.301-30.457-16.656-67.297-16.672-97.766-0.035157-30.469 16.633-50.375 47.633-52.832 82.258 28.887 22.914 64.66 35.402 101.53 35.445 36.871 0.042968 72.676-12.359 101.61-35.203l0.19141-0.16406zm477.62-121.1c13.473-0.015626 26.172-6.2969 34.355-16.996 8.1875-10.699 10.93-24.598 7.4258-37.602-3.5039-13.008-12.863-23.645-25.316-28.781s-26.59-4.1875-38.242 2.5703c-11.656 6.7539-19.508 18.547-21.242 31.906s2.8438 26.766 12.391 36.273c8.1211 8.1172 19.145 12.664 30.629 12.629zm49.477 6.1523c-0.89453 0.89453-1.8164 1.7656-2.7656 2.6133l0.003907 0.003907c39.145 15.34 68.344 48.816 78.227 89.684 26.965-31.926 40.688-72.957 38.348-114.68-2.3398-41.723-20.566-80.969-50.93-109.68-30.367-28.707-70.57-44.703-112.36-44.699-11.074-0.019531-22.125 1.0742-32.98 3.2734-7.7773 1.5977-15.426 3.7617-22.887 6.4805 0.074218 2.5273 0.125 5.0508 0.125 7.5781 0.039062 30.719-5.9922 61.145-17.75 89.523-11.758 28.383-29.012 54.156-50.762 75.848-10.035 10.031-20.949 19.137-32.617 27.211 6.418 21.73 17.289 41.887 31.922 59.191 9.8984-40.887 39.133-74.367 78.316-89.684-0.95312-0.84375-1.875-1.7148-2.7656-2.6133l-0.003907-0.003907c-13.121-13.121-20.492-30.918-20.492-49.473 0-18.559 7.3711-36.355 20.492-49.477 13.121-13.121 30.918-20.492 49.473-20.492 18.559 0 36.355 7.3711 49.477 20.492s20.492 30.918 20.492 49.477c-0.003907 18.555-7.375 36.352-20.496 49.473zm52.195 114.87c-2.4531-34.625-22.363-65.625-52.832-82.258-30.469-16.637-67.309-16.621-97.766 0.035157-30.453 16.66-50.34 47.672-52.77 82.301l0.20313 0.16406c28.938 22.844 64.738 35.25 101.61 35.203 36.867-0.042969 72.641-12.531 101.52-35.445zm-391.31-262.2c17.812-0.011719 34.605-8.3008 45.445-22.438 10.836-14.137 14.484-32.508 9.8672-49.711-4.6172-17.203-16.973-31.281-33.43-38.094-16.457-6.8086-35.148-5.5781-50.57 3.332-15.426 8.9102-25.828 24.484-28.148 42.145-2.3203 17.66 3.7031 35.395 16.301 47.988 10.742 10.762 25.328 16.801 40.535 16.777zm59.367 2.0586c-2.3906 2.3828-4.918 4.625-7.5781 6.707 52.504 18.434 91.367 63.23 102.2 117.81 35.945-39.914 54.988-92.227 53.117-145.91-1.875-53.684-24.516-104.54-63.152-141.86-38.641-37.312-90.254-58.168-143.97-58.168-53.715 0-105.33 20.855-143.97 58.168-38.641 37.312-61.281 88.172-63.152 141.86-1.8711 53.68 17.172 105.99 53.117 145.91 10.863-54.559 49.73-99.324 102.23-117.74-17.988-14.098-29.453-34.918-31.746-57.656-2.293-22.742 4.7812-45.43 19.594-62.836 14.809-17.406 36.074-28.023 58.887-29.402 22.816-1.375 45.203 6.6094 62 22.105 16.793 15.5 26.547 37.176 27.004 60.023 0.45703 22.852-8.418 44.898-24.582 61.059zm70.812 147.11c-2-33.164-16.59-64.316-40.785-87.086-24.191-22.773-56.168-35.449-89.395-35.441-33.227-0.007813-65.203 12.668-89.395 35.441-24.195 22.77-38.785 53.922-40.785 87.086 36.863 29.754 82.809 45.98 130.18 45.98s93.316-16.227 130.18-45.98z" fill="#f282b5" fill-rule="evenodd"/>
</svg>
