<?xml version="1.0" encoding="UTF-8"?>
<svg width="1200pt" height="1200pt" version="1.1" viewBox="0 0 1200 1200" xmlns="http://www.w3.org/2000/svg">
 <g fill="#f282b5">
  <path d="m1092.2 408.94c3.5625-6.75 6.75-13.5 9.75-20.438 55.5-126.94 23.812-274.69-78.375-367.88-4.5-4.125-10.688-5.625-16.5-4.5-6 1.3125-10.875 5.25-13.312 10.875l-225.56 516.75h-280.69v-180.38c6.9375 0.375 15.375 0.75 24.938 0.75 50.25 0 129.75-9.1875 181.69-61.125 78.938-78.938 59.25-222 58.312-228-1.125-8.25-7.6875-14.625-15.938-15.938-6-0.9375-149.06-20.625-228.19 58.312-20.812 20.812-34.5 45.938-43.688 71.812-7.125-13.688-15.938-26.812-27.375-38.25-67.5-67.5-189.38-50.625-194.62-49.875-8.25 1.125-14.625 7.6875-15.938 15.938-0.75 5.0625-17.625 127.12 49.875 194.62 44.438 44.438 112.5 52.312 155.25 52.312 6.75 0 12.75-0.1875 18-0.5625v180.56h-245.25c-8.0625 0-15.188 5.0625-17.812 12.75-10.125 29.625-15.75 60.562-17.062 92.062l-92.25 158.06c-3.375 5.8125-3.375 12.938 0 18.75s9.5625 9.375 16.312 9.375h75.938v143.62c0 32.625 26.625 59.25 59.25 59.25h62.438v143.62h37.5v-143.62h48.75v-37.5h-148.69c-12.188 0-21.75-9.5625-21.75-21.75v-162.38c0-10.312-8.4375-18.75-18.75-18.75h-62.062l78.188-134.06c1.6875-2.8125 2.4375-5.8125 2.625-9 0.5625-24.938 4.3125-49.312 11.062-72.938h548.62c5.8125 19.5 9.375 39.75 10.688 60.188 4.3125 64.5-12.75 126.94-49.125 180.19-35.812 52.312-60 101.81-73.875 151.5-30.938 111.56-25.5 205.5-25.125 209.44l37.5-2.25s-5.25-91.875 23.812-197.06c12.75-45.562 35.25-91.5 68.625-140.44 41.062-60.375 60.375-130.69 55.5-203.81-1.125-19.125-4.3125-38.25-9-56.812 118.88-0.5625 231.56-67.688 286.31-173.25zm-644.81-117.38c-30.562-30-65.625-55.125-104.62-75.188 21 41.062 47.25 77.625 79.125 109.5-36.188-1.125-86.438-9.1875-118.5-41.062-42.188-42.188-42.562-116.81-40.688-148.12 31.312-1.875 105.75-1.6875 148.12 40.688 23.438 23.438 33.75 56.438 38.062 86.812-0.9375 9.5625-1.3125 18.938-1.5 27.375zm87.562-147.75c52.5-52.5 145.88-51.75 181.69-49.125 2.4375 35.812 3.375 129.19-49.125 181.69-41.812 41.812-109.31 49.688-153.19 50.062 40.688-39.188 75.375-83.812 103.88-133.69-47.812 27.562-90.938 60.562-128.81 99.188-0.375-9.1875-1.125-18.938-2.625-29.25 4.125-39.938 16.312-87 48.188-118.88zm273.75 400.88 208.5-477.38c75.188 82.5 95.812 202.31 50.438 306.38-2.625 6-5.4375 11.812-8.625 18-47.812 92.438-146.06 151.69-250.12 153.19z"/>
  <path d="m693.19 375.19c-6.75 30.375-12.375 37.312-36.75 45.938v0.375c24.375 8.4375 30 15.562 36.75 45.938 0 0.1875 0.375 0.1875 0.375 0 6.75-30.375 12.375-37.312 36.75-45.938v-0.375c-24.375-8.4375-30-15.562-36.75-45.938 0-0.1875-0.375-0.1875-0.375 0z"/>
  <path d="m205.69 411s0.375 0.1875 0.375 0c6.75-30.375 12.375-37.312 36.75-45.938v-0.375c-24.375-8.4375-30-15.562-36.75-45.938 0-0.1875-0.375-0.1875-0.375 0-6.75 30.375-12.375 37.312-36.75 45.938v0.375c24.375 8.4375 30 15.562 36.75 45.938z"/>
  <path d="m431.81 93.562c6.75-30.375 12.375-37.312 36.75-45.938v-0.375c-24.375-8.4375-30-15.562-36.75-45.938 0-0.1875-0.375-0.1875-0.375 0-6.75 30.375-12.375 37.312-36.75 45.938v0.375c24.375 8.4375 30 15.562 36.75 45.938 0 0.1875 0.375 0.1875 0.375 0z"/>
 </g>
</svg>
