<?xml version="1.0" encoding="UTF-8"?>
<svg width="1200pt" height="1200pt" version="1.1" viewBox="0 0 1200 1200" xmlns="http://www.w3.org/2000/svg">
 <path d="m588.12 568.2c6.8398 7.1992 6.6016 18.602-0.48047 25.441-11.879 11.398-25.32 21.121-39.719 28.922-2.7617 1.4414-5.6406 2.1602-8.5195 2.1602-6.3594 0-12.602-3.4805-15.84-9.4805-4.6797-8.7617-1.4414-19.68 7.3203-24.359 11.641-6.2383 22.32-14.039 31.922-23.16 7.1992-6.8398 18.602-6.7188 25.441 0.48047zm-125.52-285.24c-9.9609 0-18 8.0391-18 18 0 9.9609 8.0391 18 18 18 79.68 0 144.48 64.801 144.48 144.48 0 14.641-2.1602 29.16-6.4805 42.961-3 9.4805 2.2812 19.559 11.879 22.559 1.8008 0.60156 3.6016 0.83984 5.3984 0.83984 7.6797 0 14.762-4.9219 17.16-12.602 5.3984-17.281 8.1602-35.398 8.1602-53.641 0-99.48-81-180.48-180.48-180.48zm189 368.52c-51.84 51.84-119.88 77.762-187.92 77.762-68.039 0-136.08-25.922-187.92-77.762-51.84-51.84-77.879-116.88-77.879-187.92 0-71.039 27.602-137.76 77.879-187.92 103.56-103.68 272.16-103.56 375.84 0 50.16 50.16 77.879 116.88 77.879 187.92 0 71.039-27.602 137.76-77.879 187.92zm-25.441-25.441c43.441-43.441 67.32-101.04 67.32-162.48s-23.879-119.04-67.32-162.48-103.56-67.199-162.48-67.199c-58.922 0-117.6 22.441-162.48 67.199-44.879 44.762-67.32 101.04-67.32 162.48s23.879 119.04 67.32 162.48c89.641 89.641 235.32 89.52 324.96 0zm457.44 457.44c-24.48 24.48-56.52 36.602-88.68 36.602s-64.199-12.238-88.68-36.602l-181.92-181.92c-3.3594-3.3594-5.2812-7.9219-5.2812-12.719 0-4.8008 1.9219-9.3594 5.2812-12.719l21.238-21.238-82.199-82.199c-58.922 38.281-127.8 58.922-199.68 58.922-98.281 0-190.68-38.281-260.16-107.76-143.4-143.4-143.4-376.8 0-520.2 69.48-69.48 161.88-107.76 260.16-107.76s190.68 38.281 260.16 107.76c69.48 69.48 107.76 161.88 107.76 260.16 0 72-20.641 140.76-58.922 199.68l82.199 82.199 21.238-21.238c7.0781-7.0781 18.48-7.0781 25.441 0l181.92 181.92c48.84 48.84 48.84 128.4 0 177.24zm-619.8-288c76.32 0 148.56-25.559 207.24-72.719l51.961-51.961c47.039-58.68 72.719-130.92 72.719-207.24 0-88.68-34.559-171.96-97.199-234.6-62.641-62.641-146.04-97.199-234.6-97.199-88.559 0-171.96 34.559-234.6 97.199-129.36 129.36-129.36 339.96 0 469.32 62.641 62.641 146.04 97.199 234.6 97.199zm229.44-44.039 77.879 77.879 58.32-58.32-77.879-77.879-1.6797 1.6797c-8.1602 10.078-16.801 19.68-26.039 28.922-9.2383 9.2383-18.961 17.879-29.039 26.039l-1.6797 1.6797zm364.92 180.24-169.2-169.2-126.36 126.36 169.2 169.2c34.801 34.801 91.559 34.801 126.36 0 34.801-34.801 34.801-91.559 0-126.36z" fill="#f282b5"/>
</svg>
